<svg xmlns="http://www.w3.org/2000/svg" width="10.93" height="10.93" viewBox="0 0 10.93 10.93">
  <g id="instagram_1" data-name="instagram 1" transform="translate(-1.536 -1.535)">
    <g id="Group">
      <path id="Vector" d="M5.464,3.643A1.822,1.822,0,1,0,7.286,5.465,1.826,1.826,0,0,0,5.464,3.643ZM10.93,5.465c0-.755.007-1.5-.036-2.256A3.25,3.25,0,0,0,10.012.918,3.246,3.246,0,0,0,7.721.036C6.966-.006,6.218,0,5.465,0s-1.5-.007-2.256.036A3.25,3.25,0,0,0,.918.918,3.246,3.246,0,0,0,.036,3.209C-.006,3.964,0,4.712,0,5.465s-.007,1.5.036,2.256a3.25,3.25,0,0,0,.882,2.291,3.246,3.246,0,0,0,2.291.882c.755.042,1.5.036,2.256.036s1.5.007,2.256-.036a3.25,3.25,0,0,0,2.291-.882,3.246,3.246,0,0,0,.882-2.291c.044-.753.036-1.5.036-2.256Zm-5.466,2.8a2.8,2.8,0,1,1,2.8-2.8A2.8,2.8,0,0,1,5.464,8.269ZM8.383,3.2a.654.654,0,1,1,.251-.05.654.654,0,0,1-.251.05Z" transform="translate(1.536 1.535)" fill="#fff"/>
    </g>
  </g>
</svg>
