<svg id="Avaliação" xmlns="http://www.w3.org/2000/svg" width="66.408" height="9.968" viewBox="0 0 66.408 9.968">
  <g id="star_1" data-name="star 1" transform="translate(0 0)">
    <g id="Group">
      <path id="Vector" d="M4.538.484a.7.7,0,0,1,1.331,0l.749,2.3a.7.7,0,0,0,.665.483H9.707a.7.7,0,0,1,.412,1.267L8.158,5.962a.7.7,0,0,0-.255.783l.749,2.3a.7.7,0,0,1-1.078.783L5.614,8.408a.7.7,0,0,0-.823,0L2.832,9.831a.7.7,0,0,1-1.077-.783l.749-2.3a.7.7,0,0,0-.255-.783L.289,4.539A.7.7,0,0,1,.7,3.272H3.124a.7.7,0,0,0,.666-.483l.749-2.3Z" fill="#f0cc84"/>
    </g>
  </g>
  <g id="star_2" data-name="star 2" transform="translate(14 0)">
    <g id="Group-2" data-name="Group">
      <path id="Vector-2" data-name="Vector" d="M4.538.484a.7.7,0,0,1,1.331,0l.749,2.3a.7.7,0,0,0,.665.483H9.707a.7.7,0,0,1,.412,1.267L8.158,5.962a.7.7,0,0,0-.255.783l.749,2.3a.7.7,0,0,1-1.078.783L5.614,8.408a.7.7,0,0,0-.823,0L2.832,9.831a.7.7,0,0,1-1.077-.783l.749-2.3a.7.7,0,0,0-.255-.783L.289,4.539A.7.7,0,0,1,.7,3.272H3.124a.7.7,0,0,0,.666-.483l.749-2.3Z" fill="#f0cc84"/>
    </g>
  </g>
  <g id="star_3" data-name="star 3" transform="translate(28 0)">
    <g id="Group-3" data-name="Group">
      <path id="Vector-3" data-name="Vector" d="M4.538.484a.7.7,0,0,1,1.331,0l.749,2.3a.7.7,0,0,0,.665.483H9.707a.7.7,0,0,1,.412,1.267L8.158,5.962a.7.7,0,0,0-.255.783l.749,2.3a.7.7,0,0,1-1.078.783L5.614,8.408a.7.7,0,0,0-.823,0L2.832,9.831a.7.7,0,0,1-1.077-.783l.749-2.3a.7.7,0,0,0-.255-.783L.289,4.539A.7.7,0,0,1,.7,3.272H3.124a.7.7,0,0,0,.666-.483l.749-2.3Z" fill="#f0cc84"/>
    </g>
  </g>
  <g id="star_4" data-name="star 4" transform="translate(42 0)">
    <g id="Group-4" data-name="Group">
      <path id="Vector-4" data-name="Vector" d="M4.538.484a.7.7,0,0,1,1.331,0l.749,2.3a.7.7,0,0,0,.665.483H9.707a.7.7,0,0,1,.412,1.267L8.158,5.962a.7.7,0,0,0-.255.783l.749,2.3a.7.7,0,0,1-1.078.783L5.614,8.408a.7.7,0,0,0-.823,0L2.832,9.831a.7.7,0,0,1-1.077-.783l.749-2.3a.7.7,0,0,0-.255-.783L.289,4.539A.7.7,0,0,1,.7,3.272H3.124a.7.7,0,0,0,.666-.483l.749-2.3Z" fill="#f0cc84"/>
    </g>
  </g>
  <g id="star_5" data-name="star 5" transform="translate(56 0)">
    <g id="Group-5" data-name="Group">
      <path id="Vector-5" data-name="Vector" d="M4.538.484a.7.7,0,0,1,1.331,0l.749,2.3a.7.7,0,0,0,.665.483H9.707a.7.7,0,0,1,.412,1.267L8.158,5.962a.7.7,0,0,0-.255.783l.749,2.3a.7.7,0,0,1-1.078.783L5.614,8.408a.7.7,0,0,0-.823,0L2.832,9.831a.7.7,0,0,1-1.077-.783l.749-2.3a.7.7,0,0,0-.255-.783L.289,4.539A.7.7,0,0,1,.7,3.272H3.124a.7.7,0,0,0,.666-.483l.749-2.3Z" fill="#e5e5e5"/>
    </g>
  </g>
</svg>
